<svg width="1920" height="1080" xmlns="http://www.w3.org/2000/svg">
  <defs>
    <linearGradient id="grad6" x1="0%" y1="0%" x2="100%" y2="100%">
      <stop offset="0%" style="stop-color:#a8edea;stop-opacity:1" />
      <stop offset="100%" style="stop-color:#fed6e3;stop-opacity:1" />
    </linearGradient>
  </defs>
  <rect width="1920" height="1080" fill="url(#grad6)" />
  <rect x="60" y="60" width="1800" height="960" rx="20" fill="rgba(255,255,255,0.1)" stroke="rgba(255,255,255,0.3)" stroke-width="2"/>

  <!-- Icon - AI Sparkles -->
  <g transform="translate(900, 340)">
    <circle cx="80" cy="70" r="40" fill="white" opacity="0.3"/>
    <path d="M 80 30 L 85 50 L 105 55 L 85 60 L 80 80 L 75 60 L 55 55 L 75 50 Z" fill="white" opacity="0.9"/>
    <path d="M 110 50 L 112 58 L 120 60 L 112 62 L 110 70 L 108 62 L 100 60 L 108 58 Z" fill="white" opacity="0.7"/>
    <path d="M 50 50 L 52 58 L 60 60 L 52 62 L 50 70 L 48 62 L 40 60 L 48 58 Z" fill="white" opacity="0.7"/>
  </g>

  <!-- Title -->
  <text x="960" y="540" font-family="Arial, sans-serif" font-size="64" font-weight="bold" fill="white" text-anchor="middle">
    AI Generator
  </text>

  <!-- Subtitle -->
  <text x="960" y="610" font-family="Arial, sans-serif" font-size="32" fill="rgba(255,255,255,0.8)" text-anchor="middle">
    Screenshot Placeholder
  </text>

  <!-- Instructions -->
  <text x="960" y="700" font-family="Arial, sans-serif" font-size="24" fill="rgba(255,255,255,0.6)" text-anchor="middle">
    📸 Replace this SVG with actual PNG screenshot (800x600 for modal)
  </text>
  <text x="960" y="740" font-family="Arial, sans-serif" font-size="20" fill="rgba(255,255,255,0.5)" text-anchor="middle">
    See docs/SCREENSHOTS.md for capture instructions
  </text>

  <!-- Dimensions -->
  <text x="960" y="1020" font-family="monospace" font-size="18" fill="rgba(255,255,255,0.4)" text-anchor="middle">
    1920 × 1080 px • SVG Placeholder
  </text>
</svg>